<svg width="25" height="25" viewBox="0 0 25 25" fill="none" xmlns="http://www.w3.org/2000/svg">
<g clip-path="url(#clip0_775_1190)">
<path d="M12.5002 20.8333H2.0835V18.75H8.07308C7.31266 15.8229 5.01058 13.5312 2.0835 12.7708C2.75016 12.6041 3.44808 12.5 4.16683 12.5C8.771 12.5 12.5002 16.2291 12.5002 20.8333ZM22.9168 12.7708C22.2502 12.6041 21.5522 12.5 20.8335 12.5C17.7814 12.5 15.1252 14.1458 13.6668 16.5937C13.9689 17.2812 14.2189 18 14.3647 18.75C14.5002 19.427 14.5731 20.125 14.5731 20.8333H16.6564H22.9064V18.75H16.9168C17.6877 15.8229 19.9897 13.5312 22.9168 12.7708ZM16.2918 11.4791C17.1043 9.30204 18.6147 7.47913 20.5522 6.27079C16.0835 6.41663 12.5002 10.0729 12.5002 14.5833C12.5002 14.5937 12.5002 14.6041 12.5002 14.6041C13.4897 13.2812 14.7918 12.2083 16.2918 11.4791ZM11.896 9.21871C11.021 6.93746 9.25016 5.09371 6.97933 4.16663C8.47933 6.10413 9.37516 8.52079 9.37516 11.1562C9.37516 11.375 9.34391 11.5833 9.3335 11.7916C9.78141 12.0416 10.1981 12.3333 10.6043 12.6458C10.8231 11.4166 11.2814 10.2604 11.896 9.21871Z" fill="#2A2F4F"/>
</g>
<defs>
<clipPath id="clip0_775_1190">
<rect width="25" height="25" fill="white"/>
</clipPath>
</defs>
</svg>
