<svg width="25" height="25" viewBox="0 0 25 25" fill="none" xmlns="http://www.w3.org/2000/svg">
<path d="M4.68766 12.5C6.1259 12.5 7.29183 11.334 7.29183 9.89579C7.29183 8.45755 6.1259 7.29163 4.68766 7.29163C3.24942 7.29163 2.0835 8.45755 2.0835 9.89579C2.0835 11.334 3.24942 12.5 4.68766 12.5Z" fill="#2A2F4F"/>
<path d="M9.37516 8.33333C10.8134 8.33333 11.9793 7.16741 11.9793 5.72917C11.9793 4.29093 10.8134 3.125 9.37516 3.125C7.93692 3.125 6.771 4.29093 6.771 5.72917C6.771 7.16741 7.93692 8.33333 9.37516 8.33333Z" fill="#2A2F4F"/>
<path d="M15.6252 8.33333C17.0634 8.33333 18.2293 7.16741 18.2293 5.72917C18.2293 4.29093 17.0634 3.125 15.6252 3.125C14.1869 3.125 13.021 4.29093 13.021 5.72917C13.021 7.16741 14.1869 8.33333 15.6252 8.33333Z" fill="#2A2F4F"/>
<path d="M20.3127 12.5C21.7509 12.5 22.9168 11.334 22.9168 9.89579C22.9168 8.45755 21.7509 7.29163 20.3127 7.29163C18.8744 7.29163 17.7085 8.45755 17.7085 9.89579C17.7085 11.334 18.8744 12.5 20.3127 12.5Z" fill="#2A2F4F"/>
<path d="M18.0628 15.4792C17.1565 14.4167 16.3961 13.5104 15.4794 12.4479C15.0002 11.8854 14.3857 11.3229 13.6565 11.0729C13.5419 11.0313 13.4273 11 13.3128 10.9792C13.0523 10.9375 12.7711 10.9375 12.5003 10.9375C12.2294 10.9375 11.9482 10.9375 11.6773 10.9896C11.5628 11.0104 11.4482 11.0417 11.3336 11.0833C10.6044 11.3333 10.0003 11.8958 9.51067 12.4583C8.60442 13.5208 7.844 14.4271 6.92733 15.4896C5.56275 16.8542 3.88567 18.3646 4.19817 20.4792C4.50025 21.5417 5.26067 22.5937 6.62525 22.8958C7.38567 23.0521 9.81275 22.4375 12.3961 22.4375H12.5836C15.1669 22.4375 17.594 23.0417 18.3544 22.8958C19.719 22.5937 20.4794 21.5312 20.7815 20.4792C21.1044 18.3542 19.4273 16.8437 18.0628 15.4792V15.4792Z" fill="#2A2F4F"/>
</svg>
