<svg width="25" height="25" viewBox="0 0 25 25" fill="none" xmlns="http://www.w3.org/2000/svg">
<g clip-path="url(#clip0_775_1201)">
<path d="M15.1043 12.2395C15.8234 12.2395 16.4064 11.6566 16.4064 10.9375C16.4064 10.2183 15.8234 9.63538 15.1043 9.63538C14.3852 9.63538 13.8022 10.2183 13.8022 10.9375C13.8022 11.6566 14.3852 12.2395 15.1043 12.2395Z" fill="#2A2F4F"/>
<path d="M9.89583 12.2395C10.615 12.2395 11.1979 11.6566 11.1979 10.9375C11.1979 10.2183 10.615 9.63538 9.89583 9.63538C9.17671 9.63538 8.59375 10.2183 8.59375 10.9375C8.59375 11.6566 9.17671 12.2395 9.89583 12.2395Z" fill="#2A2F4F"/>
<path d="M23.8957 11.8125C23.6353 10.2396 22.479 8.95833 20.9686 8.51042C20.4165 7.34375 19.6353 6.32292 18.6873 5.47917C17.0415 4.01042 14.8748 3.125 12.4998 3.125C10.1248 3.125 7.95817 4.01042 6.31234 5.47917C5.354 6.32292 4.57275 7.35417 4.03109 8.51042C2.52067 8.95833 1.36442 10.2292 1.104 11.8125C1.06234 12.0312 1.0415 12.2604 1.0415 12.5C1.0415 12.7396 1.06234 12.9687 1.104 13.1875C1.36442 14.7604 2.52067 16.0417 4.03109 16.4896C4.57275 17.6458 5.354 18.6667 6.2915 19.5C7.93734 20.9792 10.1144 21.875 12.4998 21.875C14.8853 21.875 17.0623 20.9792 18.7186 19.5C19.6561 18.6667 20.4373 17.6354 20.979 16.4896C22.479 16.0417 23.6353 14.7708 23.8957 13.1875C23.9373 12.9687 23.9582 12.7396 23.9582 12.5C23.9582 12.2604 23.9373 12.0312 23.8957 11.8125V11.8125ZM19.7915 14.5833C19.6873 14.5833 19.5936 14.5625 19.4894 14.5521C19.2811 15.25 18.979 15.8958 18.5936 16.4896C17.2915 18.4792 15.0519 19.7917 12.4998 19.7917C9.94775 19.7917 7.70817 18.4792 6.40609 16.4896C6.02067 15.8958 5.71859 15.25 5.51025 14.5521C5.40609 14.5625 5.31234 14.5833 5.20817 14.5833C4.06234 14.5833 3.12484 13.6458 3.12484 12.5C3.12484 11.3542 4.06234 10.4167 5.20817 10.4167C5.31234 10.4167 5.40609 10.4375 5.51025 10.4479C5.71859 9.75 6.02067 9.10417 6.40609 8.51042C7.70817 6.52083 9.94775 5.20833 12.4998 5.20833C15.0519 5.20833 17.2915 6.52083 18.5936 8.51042C18.979 9.10417 19.2811 9.75 19.4894 10.4479C19.5936 10.4375 19.6873 10.4167 19.7915 10.4167C20.9373 10.4167 21.8748 11.3542 21.8748 12.5C21.8748 13.6458 20.9373 14.5833 19.7915 14.5833ZM12.4998 17.7083C14.5936 17.7083 16.3957 16.4271 17.1873 14.5833H7.81234C8.604 16.4271 10.4061 17.7083 12.4998 17.7083Z" fill="#2A2F4F"/>
</g>
<defs>
<clipPath id="clip0_775_1201">
<rect width="25" height="25" fill="white"/>
</clipPath>
</defs>
</svg>
