<svg width="24" height="22" viewBox="0 0 24 22" fill="none" xmlns="http://www.w3.org/2000/svg">
<g clip-path="url(#clip0_775_1179)">
<path d="M17.0002 13.75H19.0002V15.5833H17.0002V13.75ZM17.0002 10.0833H19.0002V11.9166H17.0002V10.0833ZM17.0002 6.41663H19.0002V8.24996H17.0002V6.41663ZM13.7402 6.41663L15.0002 7.18663V6.41663H13.7402Z" fill="#2A2F4F"/>
<path d="M10 2.75V4.13417L12 5.35333V4.58333H21V17.4167H17V19.25H23V2.75H10Z" fill="#2A2F4F"/>
<path d="M8.17 5.22498L15 9.39581V19.25H1V9.60664L8.17 5.22498ZM10 17.4166H13V10.23L8.17 7.41581L3 10.4316V17.4166H6V11.9166H10V17.4166Z" fill="#2A2F4F"/>
</g>
<defs>
<clipPath id="clip0_775_1179">
<rect width="24" height="22" fill="white"/>
</clipPath>
</defs>
</svg>
