<svg width="535" height="503" viewBox="0 0 535 503" fill="none" xmlns="http://www.w3.org/2000/svg">
<g clip-path="url(#clip0_764_842)">
<path d="M0 12C0 5.37259 5.37258 0 12 0H523C529.627 0 535 5.37258 535 12V491C535 497.627 529.627 503 523 503H12C5.37257 503 0 497.627 0 491V12Z" fill="#C5D3EE"/>
<path opacity="0.15" d="M-395.133 177.067C-485.617 215.686 -560.192 309.836 -558.124 411.142C-537.929 406.794 -523.257 405.752 -504.883 397.746C-495.918 334.17 -453.161 272.374 -400.322 236.893C-342.948 198.347 -251.14 195.334 -185.048 215.337C-45.4152 257.628 143.955 442.02 165.28 589.41C173.187 644.012 132.946 740.075 80.1083 760.289C75.3009 762.135 45.1716 768.506 40.4396 768.549C38.0648 768.56 34.4096 767.327 32.7689 766.374C35.2018 792.317 31.1421 798.617 39.0243 824.447C96.2729 815.428 150.326 783.242 182.038 734.541C277.681 587.695 154.803 399.924 41.8091 297.854C-82.6512 185.433 -232.784 107.769 -395.118 177.045L-395.133 177.067Z" fill="#FEC868"/>
<path opacity="0.27" d="M335.209 361.513C365.866 461.509 457.146 549.336 564.686 555.925C562.367 533.978 562.925 518.218 556.526 497.898C490.2 482.801 429.587 431.768 397.99 372.252C363.66 307.626 370.866 209.308 399.54 140.457C460.151 -5.00512 676.91 -191.247 835.443 -201.221C894.175 -204.924 991.369 -153.602 1006.8 -95.4125C1008.21 -90.1176 1011.54 -57.3847 1011.05 -52.3269C1010.79 -49.7896 1009.07 -45.9928 1007.88 -44.3231C1035.63 -44.6684 1041.85 -39.7852 1070.1 -45.9604C1067.03 -107.888 1039.06 -168.415 991.068 -206.515C846.357 -321.42 633.55 -206.488 512.637 -94.6711C379.462 28.4942 280.195 182.097 335.187 361.495L335.209 361.513Z" fill="#F6C6EA" fill-opacity="0.81"/>
<path opacity="0.27" d="M459.774 -419.437C440.732 -522.279 360.076 -619.952 253.992 -638.776C253.789 -616.708 251.436 -601.114 255.473 -580.196C319.642 -557.626 374.033 -500.007 398.629 -437.273C425.358 -369.15 406.974 -272.298 370.628 -207.17C293.807 -69.5789 57.2032 90.6995 -101.432 82.5106C-160.203 79.4842 -250.902 17.4018 -259.585 -42.1682C-260.383 -47.5896 -259.959 -80.4892 -258.895 -85.458C-258.35 -87.9494 -256.207 -91.525 -254.83 -93.0473C-282.442 -95.8728 -288.058 -101.433 -316.83 -98.5239C-320.851 -36.6508 -299.974 26.6735 -256.644 70.0034C-125.997 200.677 98.5396 110.792 231.428 13.509C377.792 -93.6478 493.946 -234.914 459.794 -419.417L459.774 -419.437Z" fill="#B8D8BE"/>
</g>
<defs>
<clipPath id="clip0_764_842">
<rect width="535" height="503" fill="white"/>
</clipPath>
</defs>
</svg>
