<svg width="169" height="160" viewBox="0 0 169 160" fill="none" xmlns="http://www.w3.org/2000/svg">
<g clip-path="url(#clip0_703_740)">
<path d="M140.596 11.0148C125.005 0.663986 102.194 -1.43793 86.2161 9.34031C89.013 12.0911 90.7067 14.3079 93.8989 16.3929C104.994 11.2547 119.322 11.6534 130.493 16.3642C142.626 21.477 152.663 35.7106 156.345 48.2444C164.119 74.7279 154.355 123.75 133.016 142.332C125.111 149.218 105.568 152.752 96.8371 146.467C96.0416 145.896 91.8873 141.78 91.3878 141.035C91.1389 140.66 90.9556 139.953 90.9371 139.595C87.0436 142.657 85.614 142.663 82.3057 146.577C89.706 154.716 100.477 159.959 111.562 159.959C144.989 159.962 162.213 121.126 166.768 92.6956C171.783 61.3814 168.571 29.5856 140.601 11.0148H140.596Z" fill="#B9D8BE"/>
<path d="M80.0604 16.4537C82.5967 18.1265 83.5133 19.0338 85.735 21.1577C84.9816 22.6868 84.2415 24.2413 83.3989 25.7789C73.1647 44.4664 77.6116 65.4518 69.6648 83.607C68.8238 85.5298 63.5293 93.4627 63.5428 94.0693C63.5882 96.1695 71.3534 98.4641 73.2169 98.8628C75.8002 99.4136 79.0244 97.8355 81.0241 101.394C82.7094 104.393 82.6623 114.186 83.3014 118.311C83.8682 121.965 84.847 125.77 85.7233 129.371C85.9335 130.233 85.8528 131.172 86.7728 131.689C83.4796 135.533 83.0945 135.93 78.5097 138.438C75.2973 131.051 74.1369 123.319 73.3514 115.333C73.1328 113.108 73.8442 110.702 72.7947 108.627C72.0379 107.407 70.4452 107.965 69.1905 107.578C59.9654 104.728 49.8221 99.2818 56.0298 88.0694C58.7057 83.2353 61.4068 81.0387 63.2837 75.1165C67.5759 61.5707 65.63 46.7913 70.0953 33.1711C72.0816 27.112 75.5816 20.9752 80.0621 16.4571L80.0604 16.4537Z" fill="#FDD3B6"/>
<path d="M122.116 69.4174C127.536 77.0766 135.241 76.7741 141.319 69.9395C141.563 69.6641 141.44 68.9747 141.867 68.5844C145.241 65.4958 148.899 68.8632 146.323 73.1296C141.168 81.669 130.278 83.6865 121.932 78.1597C119.309 76.4227 112.796 68.1738 118.13 66.6177C120.927 65.8016 121.053 67.9153 122.116 69.4157V69.4174Z" fill="#FFC869"/>
<path d="M52.8847 61.5285C53.7946 60.6313 54.9921 59.07 55.8078 58.5057C59.1716 56.1723 62.0089 60.9793 59.2372 64.2877C54.4337 70.0223 46.7779 72.8575 39.3558 70.3231C36.7018 69.4174 31.6124 65.7813 29.9524 63.5459C28.6574 61.8005 28.6927 59.8777 30.4419 58.4449C33.2253 56.1655 35.072 60.5552 37.2265 62.081C40.8442 64.6408 46.0597 65.217 50.2207 63.7909C52.1683 63.1235 51.81 62.5862 52.8831 61.5302L52.8847 61.5285Z" fill="#FFC869"/>
<path d="M94.0266 16.209C94.0266 16.209 94.0122 16.191 94.0031 16.182C94.0085 16.1784 94.0122 16.1766 94.0176 16.1766C94.023 16.1892 94.0266 16.1982 94.0266 16.209Z" fill="#223D68"/>
<path d="M111.778 72.501C110.334 64.0545 109.839 55.341 108.196 46.9164C105.924 35.2883 101.716 25.0947 93.8999 16.393C93.6258 16.5112 94.1707 16.2663 93.8999 16.393C90.1679 12.6791 90.1561 12.2753 86.0389 9.21536C71.563 -1.47334 52.1711 -3.28126 36.4422 5.9949C17.9433 16.9032 10.4758 36.3561 7.6553 56.8735C6.42248 65.8388 5.97342 74.4796 3.78531 83.3486C2.38095 89.0359 -2.56543 97.6075 1.70147 102.567C5.37132 106.831 11.4765 104.192 12.5731 105.654C12.9969 106.22 14.7461 115.342 15.3919 117.354C22.148 138.406 42.206 154.018 64.7111 152.374C70.939 151.918 76.6322 149.36 82.1706 146.725C82.2261 146.788 86.7806 143.723 90.9348 139.593C91.9793 138.183 93.5518 136.493 94.2363 135.587C96.6784 132.347 99.1339 128.337 100.479 124.48C102.506 118.666 103.105 112.873 103.806 106.801C109.077 105.253 116.905 108.352 117.167 100.21C117.391 93.3361 113.077 80.0588 111.778 72.4977V72.501ZM98.8009 97.8795C96.9879 97.8795 95.9182 97.9826 95.2623 98.8156C94.8132 99.3867 94.8939 100.662 94.9225 101.362C95.0066 103.531 95.1176 108.455 94.9225 111.109C94.4264 117.86 92.2013 124.464 88.407 130.023C87.8738 130.806 86.7722 131.498 86.6662 131.618C83.3731 135.462 82.988 135.859 78.4032 138.367C74.8477 140.312 74.2473 140.361 70.5303 141.521C70.1166 141.65 70.0762 141.633 69.6541 141.76C67.6897 142.351 60.3534 142.738 58.0122 142.513C36.4826 140.46 24.3781 126.429 21.1473 105.339C20.8731 103.558 21.4046 101.683 20.8513 99.929C20.6528 99.2988 19.8606 96.9722 18.2427 96.8421H8.68796C10.6238 89.6408 12.8455 82.497 14.2079 75.1386C17.0183 59.925 15.8746 45.1592 23.8013 31.3599C35.2632 11.4085 59.9043 3.15798 79.9539 16.3879C82.4901 18.0623 83.4118 18.9359 85.6319 21.0581C100.986 35.7259 100.22 54.5705 103.87 74.6182C105.285 82.3888 108.006 89.9416 108.354 97.8812H98.7992L98.8009 97.8795Z" fill="#ABBFE3"/>
<path d="M111.777 72.501C110.332 64.0544 109.838 55.3409 108.195 46.9164C105.923 35.2882 101.743 25.0524 93.9274 16.3507C93.9392 16.3456 93.919 16.3845 93.9274 16.3794C93.9157 16.3828 93.9056 16.3879 93.8972 16.3912C93.8164 16.3101 93.9745 16.469 93.8972 16.3912C90.2542 17.9052 90.2929 18.0234 86.6685 20.4379C86.4482 20.5849 85.9419 20.9043 85.7653 21.1138C100.712 35.7258 99.8173 55.1263 103.874 74.6164C105.484 82.3499 108.01 89.9398 108.358 97.8794H98.8032C96.9901 97.8794 95.9205 97.9825 95.2645 98.8155C94.8155 99.3866 94.8962 100.662 94.9248 101.362C95.0089 103.531 95.1199 108.455 94.9248 111.109C94.4286 117.86 92.2035 124.464 88.4092 130.023C87.9181 130.743 86.5928 131.549 86.5911 131.681C86.5894 131.813 88.421 133.632 90.049 137.157C90.2155 137.591 90.9472 139.217 90.8614 139.658C91.9058 138.264 93.5675 136.479 94.2403 135.589C96.6823 132.348 99.1379 128.339 100.483 124.481C102.51 118.667 103.109 112.875 103.81 106.802C109.081 105.255 116.909 108.354 117.171 100.211C117.395 93.3377 113.081 80.0604 111.782 72.4993L111.777 72.501Z" fill="#F0C7DE"/>
</g>
<defs>
<clipPath id="clip0_703_740">
<rect width="168.724" height="159.959" fill="white"/>
</clipPath>
</defs>
</svg>
