<svg width="695" height="180" viewBox="0 0 695 180" fill="none" xmlns="http://www.w3.org/2000/svg">
<g clip-path="url(#clip0_732_653)">
<path d="M159.565 12.3442C141.871 0.744173 115.982 -1.61144 97.8486 10.4677C101.023 13.5504 102.945 16.0348 106.568 18.3715C119.16 12.6131 135.421 13.06 148.099 18.3393C161.869 24.0693 173.261 40.0208 177.439 54.0674C186.262 83.7473 175.181 138.686 150.963 159.511C141.991 167.228 119.811 171.189 109.903 164.145C109 163.505 104.285 158.892 103.718 158.057C103.436 157.637 103.228 156.845 103.207 156.444C98.7877 159.875 97.1652 159.882 93.4106 164.268C101.809 173.389 114.033 179.265 126.614 179.265C164.551 179.269 184.099 135.745 189.268 103.884C194.96 68.7899 191.314 33.1566 159.571 12.3442H159.565Z" fill="#B9D8BE"/>
<path d="M90.8598 18.4396C93.7383 20.3142 94.7785 21.3311 97.3001 23.7113C96.4449 25.425 95.605 27.1671 94.6487 28.8902C83.0338 49.8332 88.0806 73.3515 79.0616 93.698C78.1072 95.8529 72.0983 104.743 72.1136 105.423C72.1651 107.777 80.978 110.348 83.0929 110.795C86.0248 111.412 89.684 109.644 91.9535 113.632C93.8661 116.993 93.8127 127.968 94.538 132.59C95.1813 136.686 96.2922 140.95 97.2867 144.986C97.5253 145.951 97.4337 147.004 98.4778 147.584C94.7404 151.891 94.3033 152.336 89.0999 155.147C85.4541 146.868 84.137 138.203 83.2456 129.254C82.9975 126.76 83.8049 124.063 82.6138 121.738C81.7549 120.371 79.9473 120.996 78.5233 120.562C68.0536 117.368 56.5417 111.265 63.587 98.6989C66.6239 93.2814 69.6894 90.8197 71.8196 84.1827C76.6909 69.0019 74.4824 52.4388 79.5502 37.1746C81.8045 30.3843 85.7767 23.5068 90.8617 18.4434L90.8598 18.4396Z" fill="#FDD3B6"/>
<path d="M138.591 77.7958C144.743 86.3794 153.487 86.0405 160.386 78.3809C160.662 78.0723 160.523 77.2997 161.008 76.8623C164.837 73.4008 168.989 77.1747 166.064 81.956C160.214 91.5262 147.855 93.7871 138.383 87.5932C135.405 85.6466 128.015 76.4021 134.067 74.6581C137.242 73.7436 137.385 76.1124 138.591 77.7939V77.7958Z" fill="#FFC869"/>
<path d="M60.0221 68.9545C61.0548 67.949 62.4138 66.1994 63.3396 65.5669C67.1572 62.9519 70.3773 68.3391 67.2316 72.0467C61.7801 78.4735 53.0913 81.651 44.6678 78.8106C41.6558 77.7956 35.8798 73.7207 33.9958 71.2154C32.526 69.2594 32.5661 67.1045 34.5512 65.4987C37.7103 62.9443 39.8061 67.8638 42.2513 69.5737C46.3571 72.4425 52.2763 73.0882 56.9986 71.49C59.209 70.7421 58.8024 70.1399 60.0202 68.9564L60.0221 68.9545Z" fill="#FFC869"/>
<path d="M106.713 18.1651C106.713 18.1651 106.696 18.1451 106.686 18.1351C106.692 18.1311 106.696 18.1292 106.702 18.1292C106.708 18.1431 106.713 18.1531 106.713 18.1651Z" fill="#223D68"/>
<path d="M126.862 81.2517C125.222 71.7857 124.661 62.0206 122.796 52.5792C120.217 39.5476 115.441 28.1236 106.571 18.3717C106.879 18.2296 106.26 18.5042 106.571 18.3717C102.336 14.2096 102.322 13.757 97.6496 10.3277C81.2206 -1.65106 59.2123 -3.67719 41.3613 6.71856C20.3665 18.9435 11.8915 40.7443 8.69047 63.738C7.29133 73.7854 6.78168 83.4691 4.29835 93.4085C2.70451 99.7823 -2.90924 109.388 1.93336 114.946C6.09833 119.725 13.0272 116.768 14.2718 118.406C14.7528 119.04 16.7379 129.263 17.4709 131.519C25.1385 155.111 47.9027 172.607 73.4442 170.765C80.5125 170.254 86.9737 167.387 93.2593 164.435C93.3223 164.505 98.4913 161.07 103.206 156.442C104.391 154.861 106.176 152.967 106.953 151.952C109.725 148.32 112.511 143.827 114.038 139.504C116.339 132.988 117.018 126.497 117.814 119.691C123.796 117.957 132.68 121.43 132.977 112.305C133.231 104.601 128.335 89.7217 126.862 81.248V81.2517ZM112.133 109.693C110.076 109.693 108.862 109.809 108.117 110.742C107.608 111.382 107.699 112.812 107.732 113.596C107.827 116.027 107.953 121.545 107.732 124.52C107.169 132.085 104.643 139.487 100.337 145.717C99.7321 146.593 98.4818 147.37 98.3615 147.504C94.6241 151.812 94.187 152.257 88.9837 155.067C84.9485 157.247 84.267 157.302 80.0486 158.603C79.5791 158.746 79.5332 158.728 79.0541 158.87C76.8247 159.532 68.4985 159.966 65.8415 159.714C41.4071 157.413 27.6696 141.689 24.0028 118.053C23.6916 116.058 24.2948 113.956 23.6668 111.99C23.4416 111.284 22.5425 108.676 20.7063 108.531H9.86247C12.0595 100.46 14.581 92.4542 16.1271 84.2076C19.3167 67.1578 18.0187 50.6098 27.0148 35.145C40.0232 12.7856 67.9889 3.53924 90.7436 18.366C93.622 20.2425 94.668 21.2215 97.1876 23.5998C114.613 40.038 113.744 61.1571 117.887 83.6244C119.492 92.333 122.58 100.797 122.975 109.695H112.132L112.133 109.693Z" fill="#ABBFE3"/>
<path d="M126.856 81.2514C125.216 71.7854 124.655 62.0202 122.79 52.5789C120.211 39.5472 115.468 28.0759 106.598 18.324C106.611 18.3183 106.588 18.3619 106.598 18.3562C106.584 18.36 106.573 18.3657 106.563 18.3694C106.651 18.4566 106.472 18.2786 106.563 18.3694C102.429 20.0661 102.473 20.1986 98.3595 22.9046C98.1094 23.0693 97.5349 23.4272 97.3345 23.662C114.298 40.0377 113.282 61.7797 117.886 83.6222C119.713 92.2891 122.58 100.795 122.975 109.693H112.131C110.074 109.693 108.86 109.808 108.115 110.742C107.606 111.382 107.697 112.812 107.73 113.596C107.825 116.027 107.951 121.545 107.73 124.52C107.167 132.085 104.641 139.487 100.335 145.716C99.7777 146.523 98.2736 147.426 98.2717 147.574C98.2698 147.722 100.348 149.761 102.196 153.711C102.385 154.198 103.215 156.019 103.118 156.514C104.303 154.951 106.189 152.952 106.953 151.954C109.724 148.322 112.511 143.829 114.038 139.505C116.338 132.99 117.018 126.498 117.814 119.693C123.796 117.958 132.68 121.431 132.977 112.306C133.231 104.603 128.335 89.7233 126.862 81.2495L126.856 81.2514Z" fill="#F0C7DE"/>
</g>
<path d="M322.157 129.365C323.981 131.037 325.804 132.632 327.628 134.152C329.452 135.52 331.048 136.888 332.415 138.255C333.327 139.015 334.543 140.079 336.063 141.447C337.582 142.663 338.95 143.498 340.166 143.954C340.926 144.714 341.762 145.398 342.673 146.006C343.737 146.614 344.573 147.222 345.181 147.83C345.941 148.589 346.701 149.349 347.461 150.109C348.221 150.717 348.828 151.477 349.284 152.389C349.132 152.693 348.98 153.073 348.828 153.529C348.524 154.288 348.145 154.896 347.689 155.352C346.473 156.568 345.485 157.708 344.725 158.772C343.965 159.987 343.205 160.975 342.446 161.735L340.622 163.559C340.318 163.863 340.166 164.091 340.166 164.243C339.406 164.243 338.722 163.939 338.114 163.331C337.506 162.723 336.823 162.115 336.063 161.507C334.087 160.291 332.719 159.304 331.959 158.544C331.351 157.936 330.06 157.328 328.084 156.72C327.628 156.416 326.792 155.96 325.576 155.352C324.513 154.744 323.753 154.288 323.297 153.985C321.321 153.377 319.422 152.389 317.598 151.021C315.774 149.653 313.799 148.362 311.671 147.146L293.89 135.52C292.37 134.76 290.927 133.924 289.559 133.012C288.343 132.1 286.975 131.264 285.455 130.505C284.392 129.897 283.48 129.365 282.72 128.909C282.112 128.301 281.352 127.617 280.44 126.857C279.225 126.097 277.933 125.338 276.565 124.578C275.197 123.818 273.905 123.21 272.69 122.754L270.866 121.842V123.21C270.866 124.426 270.714 125.565 270.41 126.629C270.258 127.693 270.182 128.605 270.182 129.365C270.03 133.316 269.802 137.267 269.498 141.219C269.194 145.018 269.042 148.893 269.042 152.845C269.042 154.061 268.966 155.276 268.814 156.492C268.814 157.708 268.434 158.924 267.675 160.139H266.535C264.711 160.139 263.191 160.063 261.976 159.912C260.76 159.912 259.316 159.987 257.644 160.139C256.429 160.291 255.365 160.291 254.453 160.139C253.541 160.139 252.477 160.139 251.261 160.139C251.109 159.684 250.881 159.304 250.578 159C250.274 158.696 250.122 158.316 250.122 157.86C250.426 155.124 250.35 150.869 249.894 145.094C249.59 139.319 249.438 132.784 249.438 125.489C249.438 123.514 249.438 121.614 249.438 119.79C249.59 117.967 249.59 116.067 249.438 114.091C249.134 111.66 248.982 109.228 248.982 106.797C248.982 104.365 249.058 101.858 249.21 99.2741V92.8912C249.21 90.6116 249.134 88.332 248.982 86.0524C248.83 83.6208 248.754 81.1892 248.754 78.7576C248.754 77.5418 248.754 76.3261 248.754 75.1103C248.906 73.8945 249.058 72.6787 249.21 71.4629C249.21 70.2471 249.058 68.9553 248.754 67.5876C248.602 66.2198 248.678 64.928 248.982 63.7123C248.982 63.2563 248.982 61.8886 248.982 59.609C249.134 57.3294 249.21 54.8218 249.21 52.0863C249.21 49.3508 249.134 46.6912 248.982 44.1077C248.982 41.3721 248.982 39.3205 248.982 37.9527L248.526 26.3268C249.286 25.5669 249.742 25.187 249.894 25.187C250.198 25.035 250.729 24.959 251.489 24.959C251.793 24.959 252.021 25.035 252.173 25.187C252.325 25.187 252.477 25.187 252.629 25.187C252.781 25.187 253.617 25.2629 255.137 25.4149C256.656 25.4149 258.328 25.4909 260.152 25.6429C261.976 25.6429 263.647 25.7189 265.167 25.8708C266.839 25.8708 267.751 25.9468 267.903 26.0988C268.054 27.3146 268.13 28.3024 268.13 29.0623C268.13 29.8222 268.054 30.582 267.903 31.3419C267.903 32.1018 267.827 33.0136 267.675 34.0774C267.675 34.9893 267.675 36.205 267.675 37.7248V42.056C267.067 46.3113 266.687 50.6425 266.535 55.0498C266.535 59.305 266.535 63.4843 266.535 67.5876C266.383 72.1468 266.155 75.4902 265.851 77.6178C265.699 79.5935 265.623 81.9491 265.623 84.6846V89.4718C265.623 90.2316 265.547 90.8395 265.395 91.2955C265.395 91.7514 265.775 91.9793 266.535 91.9793L267.675 90.8395C268.434 90.0797 269.194 89.2438 269.954 88.332C270.714 87.2681 271.398 86.4323 272.006 85.8244C272.158 85.5205 272.614 84.9885 273.374 84.2287C274.133 83.3168 274.665 82.7089 274.969 82.405C276.641 79.6695 278.085 77.6938 279.301 76.478C280.668 75.2622 281.96 73.5905 283.176 71.4629C284.088 70.0951 284.924 68.7274 285.683 67.3596C286.595 65.9919 287.659 64.7001 288.875 63.4843C288.875 63.4843 289.027 63.3323 289.331 63.0284C290.091 61.3567 291.002 59.8369 292.066 58.4692C293.13 56.9494 294.194 55.3537 295.258 53.682C296.474 52.0103 297.613 50.2626 298.677 48.4389C299.893 46.6152 301.109 44.8675 302.325 43.1958L315.774 23.3633L318.51 19.26C318.814 18.8041 319.27 18.2722 319.877 17.6643C320.637 17.0564 321.245 16.6005 321.701 16.2965C322.309 16.7524 323.221 17.3603 324.437 18.1202C325.652 18.8801 327.096 19.8679 328.768 21.0837C329.984 21.8435 331.124 22.6794 332.187 23.5912C333.403 24.3511 334.391 25.6429 335.151 27.4666C335.151 27.9225 334.619 28.9863 333.555 30.658C332.491 32.3297 331.351 34.1534 330.136 36.1291C328.92 37.9527 327.78 39.7004 326.716 41.3721C325.652 42.8919 325.045 43.8037 324.893 44.1077C323.981 45.6274 323.145 47.2231 322.385 48.8948C321.777 50.4146 321.093 51.5544 320.333 52.3142C319.118 53.834 317.978 55.5057 316.914 57.3294C316.002 59.0011 315.014 60.6728 313.95 62.3445C312.279 64.928 310.455 67.3596 308.479 69.6392C306.656 71.9188 304.832 74.1984 303.008 76.478C301.337 78.7576 299.665 80.9612 297.993 83.0889C296.322 85.2165 295.258 86.4323 294.802 86.7362C293.738 87.952 292.674 89.0918 291.61 90.1556C290.547 91.0675 289.483 92.0553 288.419 93.1191C287.355 94.183 286.443 95.3228 285.683 96.5385C284.924 97.6024 284.164 98.5902 283.404 99.502C284.012 99.9579 284.392 100.414 284.544 100.87C284.848 101.326 285.379 101.782 286.139 102.238C287.963 103.453 289.863 104.973 291.838 106.797C293.814 108.62 295.714 110.14 297.537 111.356C300.121 112.724 302.476 114.319 304.604 116.143C306.732 117.815 309.087 119.715 311.671 121.842C312.279 122.602 313.191 123.286 314.406 123.894C315.774 124.502 317.066 125.49 318.282 126.857C318.89 127.465 319.498 127.997 320.105 128.453C320.865 128.757 321.549 129.061 322.157 129.365Z" fill="#2A2F4F"/>
<path d="M385.144 156.036C382.712 155.124 380.128 153.757 377.393 151.933C374.657 149.957 372.682 148.513 371.466 147.602C370.706 146.842 370.022 146.234 369.414 145.778C368.958 145.322 368.654 144.714 368.502 143.954C367.439 141.675 366.223 139.699 364.855 138.027C363.639 136.356 362.803 134.456 362.348 132.328C361.892 130.201 361.436 128.073 360.98 125.945C360.676 123.666 360.372 121.538 360.068 119.563C360.068 117.435 359.992 115.459 359.84 113.636C359.688 111.812 359.612 109.836 359.612 107.709C359.612 105.429 359.688 103.377 359.84 101.554C360.144 99.73 360.296 97.6783 360.296 95.3987C360.296 93.879 360.22 92.3593 360.068 90.8395C360.068 89.1678 360.068 87.5721 360.068 86.0524V82.8609C360.068 81.4932 360.144 80.1254 360.296 78.7576C360.6 77.2379 360.752 75.7182 360.752 74.1984C362.575 74.0465 364.779 74.0465 367.363 74.1984C370.098 74.1984 372.15 74.1984 373.518 74.1984C373.974 74.3504 374.961 74.3504 376.481 74.1984C378.153 74.0465 379.293 73.9705 379.9 73.9705C380.66 73.9705 382.256 73.9705 384.688 73.9705C387.271 73.9705 388.943 74.0465 389.703 74.1984C389.551 74.9583 389.399 75.6422 389.247 76.2501C389.095 76.858 389.019 77.4659 389.019 78.0737C389.019 78.6816 389.019 79.1376 389.019 79.4415C389.019 81.5691 388.943 83.4688 388.791 85.1405C388.639 86.8122 388.563 88.5599 388.563 90.3836C388.563 91.2955 388.563 93.1191 388.563 95.8547C388.715 98.4382 388.867 101.25 389.019 104.289C389.171 107.329 389.323 110.216 389.475 112.952C389.779 115.535 390.007 117.283 390.159 118.195C390.159 119.714 390.159 121.006 390.159 122.07C390.311 122.982 390.463 124.198 390.615 125.717C390.767 127.389 391.147 128.833 391.754 130.049C392.514 131.113 393.046 131.796 393.35 132.1L394.718 135.748L397.909 139.851C398.973 141.219 400.417 142.055 402.241 142.359C404.064 142.511 405.812 142.511 407.484 142.359L412.727 141.903C413.943 141.751 415.31 140.991 416.83 139.623C418.35 138.103 419.718 136.964 420.933 136.204C421.693 135.444 422.301 134.38 422.757 133.012C423.365 131.492 423.897 129.973 424.353 128.453C424.353 128.301 424.505 127.617 424.809 126.401C425.113 125.186 425.417 123.894 425.721 122.526C426.176 121.006 426.48 119.639 426.632 118.423C426.936 117.055 427.088 116.295 427.088 116.143C427.24 114.927 427.392 113.56 427.544 112.04C427.696 110.52 427.696 109.152 427.544 107.937C427.24 106.569 427.24 105.049 427.544 103.377C427.848 101.706 428 100.11 428 98.5902C428 97.3744 428.076 96.0066 428.228 94.4869C428.38 92.9672 428.532 91.8274 428.684 91.0675C428.684 91.2195 428.684 90.9155 428.684 90.1556C428.836 89.3958 428.912 88.5599 428.912 87.6481C428.912 86.7362 428.912 85.9004 428.912 85.1405C428.912 84.2287 428.912 83.6968 428.912 83.5448C428.76 82.633 428.532 81.7971 428.228 81.0372C428.076 80.1254 428 79.2136 428 78.3017C428 77.8458 428.076 77.3899 428.228 76.934C428.38 76.478 428.456 76.0221 428.456 75.5662H433.243C433.851 75.5662 434.383 75.6422 434.839 75.7942C435.447 75.9461 435.903 76.0221 436.207 76.0221C437.726 76.0221 439.018 76.0981 440.082 76.2501C441.146 76.2501 442.058 76.1741 442.818 76.0221C443.577 75.7182 444.185 75.6422 444.641 75.7942C445.097 75.7942 445.705 75.7182 446.465 75.5662C447.681 75.8701 448.669 75.9461 449.428 75.7942C450.34 75.4902 451.48 75.4142 452.848 75.5662C453 76.3261 452.924 77.3899 452.62 78.7576C452.468 80.1254 452.392 81.4932 452.392 82.8609C452.392 85.7484 452.392 88.7119 452.392 91.7514C452.544 94.6389 452.544 97.6023 452.392 100.642C452.24 102.314 452.164 103.909 452.164 105.429C452.316 106.949 452.24 108.468 451.936 109.988C451.936 110.292 451.936 110.9 451.936 111.812C451.936 112.572 451.936 113.408 451.936 114.319C451.936 115.231 451.936 116.143 451.936 117.055C451.936 117.815 451.936 118.271 451.936 118.423C452.24 120.094 452.392 122.146 452.392 124.578C452.392 127.009 452.316 129.593 452.164 132.328C452.012 134.912 451.86 137.419 451.708 139.851C451.708 142.283 451.708 144.334 451.708 146.006C451.708 148.286 451.784 150.565 451.936 152.845C452.088 154.972 452.164 157.176 452.164 159.456C448.517 160.215 444.945 160.519 441.45 160.367C438.106 160.367 434.611 160.519 430.964 160.823C430.508 160.215 430.28 159.228 430.28 157.86C430.28 157.1 430.204 156.416 430.052 155.808C430.052 155.2 429.976 154.516 429.824 153.757C429.672 153.301 429.596 152.541 429.596 151.477C429.596 151.021 429.52 150.641 429.368 150.337C429.064 150.337 428.608 150.717 428 151.477C427.392 152.237 426.708 152.769 425.948 153.073C424.429 153.833 422.909 154.516 421.389 155.124C420.022 155.884 418.578 156.416 417.058 156.72C414.019 158.088 410.675 158.848 407.028 159C403.38 159.304 399.581 159.456 395.63 159.456C393.35 159.456 391.374 159.076 389.703 158.316C388.183 157.556 386.663 156.796 385.144 156.036Z" fill="#2A2F4F"/>
<path d="M591.157 150.565C591.461 147.07 591.537 143.954 591.385 141.219C591.233 138.331 591.157 135.824 591.157 133.696C590.701 131.872 590.397 130.049 590.246 128.225C590.094 126.249 589.866 124.426 589.562 122.754C588.802 120.626 588.27 118.499 587.966 116.371C587.814 114.091 587.358 111.888 586.598 109.76C586.598 107.481 586.142 105.353 585.23 103.377C584.471 101.25 583.027 99.426 580.899 97.9063C579.227 97.1464 577.708 96.4626 576.34 95.8547C574.972 95.2468 573.528 94.9428 572.009 94.9428C571.249 95.3987 569.957 96.1586 568.133 97.2224C566.462 98.2862 565.246 99.654 564.486 101.326C563.726 103.149 563.042 104.821 562.434 106.341C561.978 107.709 561.447 108.848 560.839 109.76C559.927 111.28 559.471 113.104 559.471 115.231C559.471 117.359 559.395 119.259 559.243 120.93C559.243 121.234 559.167 121.994 559.015 123.21C558.863 124.274 558.711 125.49 558.559 126.857C558.407 128.225 558.255 129.517 558.103 130.733C557.951 131.796 557.875 132.48 557.875 132.784L556.051 146.006C556.051 147.07 555.975 148.134 555.824 149.197C555.824 150.109 555.824 151.097 555.824 152.161C555.824 152.921 555.748 153.681 555.596 154.44C555.444 155.2 555.368 155.96 555.368 156.72H554C552.176 157.024 550.201 157.176 548.073 157.176C546.097 157.176 543.742 157.024 541.006 156.72C540.246 156.568 539.562 156.416 538.954 156.264C538.499 156.112 538.271 155.276 538.271 153.757C538.271 151.933 538.195 150.261 538.043 148.741C538.043 147.222 538.043 145.626 538.043 143.954C538.195 141.675 538.271 139.395 538.271 137.115C538.271 134.684 538.043 132.1 537.587 129.365C537.587 127.389 537.359 125.262 536.903 122.982C536.447 120.702 536.067 118.499 535.763 116.371C535.459 114.395 535.307 112.42 535.307 110.444C535.307 108.316 534.927 106.417 534.167 104.745C533.711 103.225 533.179 101.858 532.572 100.642C532.116 99.2741 531.508 97.8303 530.748 96.3106C530.596 96.0066 530.444 95.8547 530.292 95.8547C530.14 95.7027 529.988 95.5507 529.836 95.3987L528.24 94.7149C526.569 93.651 524.517 92.8912 522.085 92.4353H521.174L516.158 93.1191C513.119 93.5751 510.687 94.6389 508.864 96.3106C504.456 100.718 501.569 106.569 500.201 113.864C499.289 115.231 498.757 116.675 498.605 118.195C498.454 119.563 498.226 120.93 497.922 122.298C497.618 123.97 497.39 125.717 497.238 127.541C497.238 129.213 497.162 130.885 497.01 132.556C497.01 133.772 496.782 134.988 496.326 136.204C496.022 137.419 496.022 138.559 496.326 139.623C496.326 139.927 496.25 140.611 496.098 141.675C496.098 142.739 496.022 143.878 495.87 145.094C495.87 146.31 495.794 147.45 495.642 148.513C495.642 149.577 495.642 150.261 495.642 150.565C495.338 151.173 495.186 152.389 495.186 154.213C495.186 156.036 495.11 157.1 494.958 157.404C494.198 157.404 493.286 157.48 492.223 157.632C491.311 157.936 490.323 158.24 489.259 158.544C488.347 158.848 487.283 158.924 486.068 158.772C484.852 158.62 483.712 158.392 482.648 158.088C480.369 157.632 478.697 157.404 477.633 157.404C476.569 157.404 475.202 157.176 473.53 156.72C473.53 155.808 473.454 154.668 473.302 153.301C473.302 151.781 473.15 150.261 472.846 148.741C472.694 147.07 472.542 145.474 472.39 143.954C472.39 142.435 472.39 141.295 472.39 140.535C472.39 140.079 472.314 139.319 472.162 138.255C472.162 137.039 472.086 135.824 471.934 134.608C471.934 133.24 471.858 132.024 471.706 130.961C471.554 129.745 471.478 128.909 471.478 128.453C471.326 126.933 471.25 125.565 471.25 124.35C471.25 123.134 471.25 121.766 471.25 120.246C471.402 118.727 471.478 117.283 471.478 115.915C471.478 114.547 471.478 113.18 471.478 111.812V92.8912C471.478 92.4352 471.478 91.2955 471.478 89.4718C471.63 87.4961 471.706 85.4445 471.706 83.3168C471.858 81.1892 471.934 79.2136 471.934 77.3899C472.086 75.4142 472.162 74.1984 472.162 73.7425C472.922 73.7425 473.91 73.6665 475.126 73.5145C476.341 73.3626 477.329 73.2866 478.089 73.2866C479.609 73.2866 480.977 73.2866 482.192 73.2866C483.56 73.1346 484.928 73.0586 486.296 73.0586C487.815 73.0586 488.575 73.0586 488.575 73.0586C488.575 72.9067 488.879 72.9067 489.487 73.0586C489.943 74.4264 490.095 75.3382 489.943 75.7942C489.943 76.0981 490.095 76.782 490.399 77.8458C490.551 78.6057 490.703 79.5175 490.855 80.5813C491.159 81.6451 491.311 82.557 491.311 83.3168V84.4566C492.679 83.0889 494.046 82.0251 495.414 81.2652C496.782 80.3534 497.846 79.5175 498.605 78.7576C500.733 77.0859 502.937 75.9461 505.216 75.3382C507.496 74.7303 510.079 74.1984 512.967 73.7425L523.225 72.6027H524.821C527.101 73.0586 529.152 73.5905 530.976 74.1984C532.8 74.6543 534.699 75.4902 536.675 76.706L542.374 81.7211C543.286 82.329 543.894 82.8609 544.198 83.3168C544.957 83.9247 545.641 84.6846 546.249 85.5964C547.009 86.3563 547.693 87.4961 548.301 89.0158C549.061 88.256 549.745 87.5721 550.352 86.9642C550.96 86.2043 551.644 85.4445 552.404 84.6846C552.708 84.3807 553.088 84.0767 553.544 83.7728C554.152 83.4688 554.836 83.1649 555.596 82.8609C556.811 82.1011 557.723 81.4932 558.331 81.0372C558.939 80.4293 559.851 79.8215 561.067 79.2136C561.826 78.9096 562.662 78.6057 563.574 78.3017C564.638 77.9978 565.55 77.6178 566.31 77.1619C569.957 75.6422 573.224 75.3382 576.112 76.2501C579.151 77.1619 582.115 77.9978 585.002 78.7576C587.282 79.5175 589.182 80.6573 590.701 82.177C592.373 83.6968 593.969 85.5205 595.489 87.6481L599.82 96.3106C600.58 98.5902 601.264 100.87 601.871 103.149C602.631 105.277 603.011 107.481 603.011 109.76C603.619 112.648 604.227 115.611 604.835 118.651C605.443 121.538 605.747 124.806 605.747 128.453C606.507 130.733 606.735 133.24 606.431 135.976C606.127 138.711 606.355 141.143 607.115 143.27V155.124C605.595 155.124 604.379 155.352 603.467 155.808C602.707 156.416 601.492 156.72 599.82 156.72C599.06 156.72 598.072 156.796 596.856 156.948C595.641 157.252 594.653 157.556 593.893 157.86C593.133 157.86 592.449 157.784 591.841 157.632C591.385 157.632 591.157 157.328 591.157 156.72V150.565Z" fill="#2A2F4F"/>
<path d="M646.162 70.5511C647.226 70.2471 648.517 69.7912 650.037 69.1833C651.557 68.5754 653.076 68.2715 654.596 68.2715C656.572 68.2715 658.396 68.2715 660.067 68.2715C661.739 68.1195 663.563 68.0435 665.538 68.0435C667.058 68.0435 668.502 68.1195 669.87 68.2715C671.389 68.2715 672.757 68.4994 673.973 68.9553C674.277 68.9553 674.657 69.0313 675.113 69.1833C675.569 69.3353 676.176 69.7912 676.936 70.5511C678.456 71.007 679.9 71.7668 681.268 72.8307C682.635 73.8945 683.851 75.1862 684.915 76.706C686.131 78.2257 687.195 79.8214 688.106 81.4932C689.17 83.0129 690.082 84.5326 690.842 86.0524C691.602 87.2682 692.058 88.8639 692.21 90.8395C692.514 92.8152 692.894 94.4109 693.349 95.6267C693.349 97.7543 693.425 99.806 693.577 101.782C693.881 103.757 694.033 105.809 694.033 107.937C694.033 111.432 693.957 114.775 693.805 117.967C693.653 121.158 693.577 124.502 693.577 127.997L693.122 135.52C693.122 136.128 692.818 137.191 692.21 138.711C691.602 140.231 691.222 141.371 691.07 142.131C690.614 143.65 690.006 145.474 689.246 147.602C688.486 149.577 687.954 150.717 687.65 151.021C686.891 151.781 686.359 152.465 686.055 153.073C685.751 153.681 685.447 154.288 685.143 154.896C684.991 155.504 684.687 156.036 684.231 156.492C683.927 156.948 683.319 157.404 682.407 157.86C681.648 158.164 680.736 158.62 679.672 159.228C678.608 159.987 677.62 160.671 676.708 161.279C675.948 161.583 675.569 161.811 675.569 161.963C675.569 162.267 675.037 162.571 673.973 162.875L669.87 163.787C668.046 164.091 666.526 164.167 665.31 164.015C664.247 163.863 663.031 163.787 661.663 163.787C657.408 163.787 653.152 162.951 648.897 161.279C647.529 161.279 646.162 160.975 644.794 160.367C643.578 159.76 642.666 159.076 642.058 158.316C641.299 157.708 640.539 157.024 639.779 156.264C639.019 155.656 638.259 154.972 637.499 154.213C636.283 152.845 635.296 151.477 634.536 150.109C633.776 148.741 633.016 147.298 632.256 145.778C631.496 144.106 630.66 142.435 629.749 140.763C628.837 138.939 628.229 136.964 627.925 134.836C627.621 131.34 627.317 128.149 627.013 125.262C626.861 122.374 626.785 119.487 626.785 116.599V107.253C626.633 106.949 626.557 106.341 626.557 105.429C626.557 104.517 626.633 103.909 626.785 103.605C626.785 102.845 626.785 102.086 626.785 101.326C626.937 100.414 627.089 99.578 627.241 98.8181C627.393 97.6024 627.469 96.3866 627.469 95.1708C627.469 93.955 627.849 92.7392 628.609 91.5234C628.457 91.8274 628.533 91.5994 628.837 90.8395C629.293 89.9277 629.749 89.0159 630.204 88.104C630.66 87.0402 631.04 86.1284 631.344 85.3685C631.648 84.6086 631.8 84.3047 631.8 84.4566L633.396 81.4932C633.852 81.0372 634.308 80.5053 634.764 79.8974C635.22 79.2895 635.827 78.6057 636.587 77.8458C637.499 77.0859 638.639 76.0981 640.007 74.8823C641.526 73.6665 643.578 72.2228 646.162 70.5511ZM662.803 108.392C662.195 108.392 661.587 108.696 660.979 109.304C660.523 109.912 660.219 110.444 660.067 110.9C659.003 113.18 658.472 115.079 658.472 116.599C658.472 120.702 659.915 123.438 662.803 124.806C663.563 124.806 664.171 124.578 664.626 124.122C665.234 123.514 665.538 122.906 665.538 122.298C665.538 120.778 665.69 119.031 665.994 117.055C666.45 115.079 666.298 113.028 665.538 110.9C664.778 110.14 664.323 109.532 664.171 109.076C664.019 108.62 663.563 108.392 662.803 108.392Z" fill="#2A2F4F"/>
<defs>
<clipPath id="clip0_732_653">
<rect width="191.488" height="179.265" fill="white"/>
</clipPath>
</defs>
</svg>
